PathFileType	4	(X/Y/Z)	39_2_71_p1_0-563_filt_butterworth.trc
DataRate	CameraRate	NumFrames	NumMarkers	Units	OrigDataRate	OrigDataStartFrame	OrigNumFrames
47.0	47.0	7	27	m	47.0	140	563
Frame#	Time	RHip			RKnee			RAnkle			RBigToe			RSmallToe			RHeel			LHip			LKnee			LAnkle			LBigToe			LSmallToe			LHeel			Neck			Head			Nose			RShoulder			RElbow			RWrist			RThumb			RIndex			RPinky			LShoulder			LElbow			LWrist			LThumb			LIndex			LPinky			
		X1	Y1	Z1	X2	Y2	Z2	X3	Y3	Z3	X4	Y4	Z4	X5	Y5	Z5	X6	Y6	Z6	X7	Y7	Z7	X8	Y8	Z8	X9	Y9	Z9	X10	Y10	Z10	X11	Y11	Z11	X12	Y12	Z12	X13	Y13	Z13	X14	Y14	Z14	X15	Y15	Z15	X16	Y16	Z16	X17	Y17	Z17	X18	Y18	Z18	X19	Y19	Z19	X20	Y20	Z20	X21	Y21	Z21	X22	Y22	Z22	X23	Y23	Z23	X24	Y24	Z24	X25	Y25	Z25	X26	Y26	Z26	X27	Y27	Z27	
140	2.978723404255319	0.2944531446072321	0.885778621882173	0.6815480072331074	0.2673344143599261	0.44862542158118035	0.7635489945961644	0.22929817597532695	0.02935552470930842	0.8611154199359675	0.2108662345001594	0.026001962680141003	0.6533127451092144	0.27612923289086233	0.007570556168491213	0.688690108521393	0.20304453572941059	-0.033007003786026314	0.9532194305670624	0.0879260252484653	0.9075169926007347	0.7004736230417057	0.048423821313312666	0.46992855251524857	0.7807158455537715	0.028768527720453532	0.06551000962311426	0.8374651554952058	0.059501541967877256	0.045343328872725984	0.6591037663645555	0.0003846409542973254	0.032999825467953665	0.697872600381101	0.04196451969613192	0.009022157660704959	0.8727345976826248	0.24665552353505538	1.43634019059219	0.6536396543754982	0.25866584905739615	1.6676077188505314	0.6054882336331988	0.24513502566120204	1.549407772190868	0.510410158955583	0.4025318133683475	1.3358439802218929	0.6886611327268958	0.4401496794452991	1.097090125826731	0.7212536839480159	0.4656316150705499	1.0389790170514344	0.5019412857170542	0.452998247985143	1.0351693610608315	0.3896409685889203	0.4565283245409845	1.0254128621289516	0.39246480488754976	0.4564886279215417	0.97144491019915	0.4482962590648238	0.0786536044759171	1.365938115534859	0.7188076902242713	0.05372928141918322	1.1575739763211417	0.6891813888866046	-0.07044691413882902	1.143984899317939	0.5857510049663537	-0.10819376094382227	1.1740222966688085	0.48962290347318127	-0.12763991334538283	1.1680422252076674	0.4845065164410014	-0.11547382014156427	1.1176997432399334	0.48650430310954634	
141	3.0	0.29422346572561	0.8860001851891727	0.6805618943428715	0.26686573293275473	0.4495345044673664	0.7627460392777055	0.2294703154372272	0.02926215509448235	0.861313468896957	0.21085134364788893	0.02598735639169538	0.6532651386426213	0.2759456928053484	0.0073040929886857495	0.6891652240824837	0.2031775428210618	-0.03320517193716191	0.9532209171971445	0.08847969564463569	0.9074685235985162	0.7006569193512537	0.04856286998703297	0.4698066911671967	0.7807177827957689	0.028723717330140102	0.06519641582346845	0.8374496628863776	0.059550235673058755	0.045783839273202086	0.6577552326053772	0.0003354928470923141	0.03287795596741664	0.6979913292893554	0.04193283343361842	0.009161959054299972	0.8727178042877121	0.24593624857776258	1.4362118212556594	0.655651485637612	0.25868004594460936	1.6678740628052844	0.6056803383616285	0.24527735781824	1.5494614903311061	0.5100193282097664	0.40247073413162654	1.3358429870213697	0.6888560682153118	0.4405111901861806	1.0973685511754228	0.7206026159659582	0.46254081704396655	1.0435916489028896	0.5033514164570622	0.4441283301486034	1.042198091579712	0.39124278247994176	0.4467194381140711	1.0333120977662806	0.3953841544724444	0.4536397584625265	0.9800840399555728	0.44952013124126944	0.07822661922880296	1.3659789771423598	0.7187089331916828	0.05371349972233147	1.1551424062384492	0.6904843994888574	-0.0696070642782514	1.1478420557965996	0.5858499505965353	-0.10569364584749597	1.1805787217856458	0.49277421176867553	-0.12668370793292244	1.1774907381882609	0.48745941358655	-0.11477818733233125	1.124904314198407	0.48716693497778496	
142	3.021276595744681	0.294096244270152	0.8861751023464148	0.6797337534794017	0.2663186426122455	0.4502463950921044	0.7622978286362686	0.2295551674876789	0.029225525393304225	0.8613961690004466	0.2108335442826158	0.026000123915898114	0.6532042245468761	0.27600891254175974	0.007460946877003494	0.6888476758992275	0.20333715336256855	-0.03340206682377721	0.9532022845014289	0.08886480624925625	0.9071475345029147	0.7014926478593112	0.04860562437433876	0.46955701960000185	0.7807701041743307	0.028733863632804425	0.06503909287229673	0.8374362689410513	0.05949842083697936	0.04703506032238734	0.6552861256270246	0.00033501192870636525	0.03294317293806	0.6980564315294614	0.041881811537649985	0.009495638380531211	0.8726270629318705	0.2455793909270938	1.436614261040565	0.6567993839231502	0.2586369022312488	1.6677109474806588	0.605845243899753	0.24524399275900066	1.5495596876181197	0.5102350766369939	0.4026229938223504	1.3361353950906236	0.6883413298898802	0.4404026164071929	1.0972139205872748	0.7204558357950592	0.46065171257009413	1.047420109398733	0.5071898254767693	0.43819739301089594	1.0473035682700527	0.392406594698107	0.43964692220427726	1.040150708507998	0.3965758463831809	0.4521416764474513	0.9889347152473276	0.44940123283787975	0.07811867167380648	1.3660169682847696	0.7186592433699405	0.054092702365494	1.1513874969711604	0.695035524324759	-0.0694662601352387	1.151118631782634	0.5861438480843804	-0.10382469927427926	1.18649399592846	0.4959396453505793	-0.1270829705643803	1.1857635223211322	0.4916118029025178	-0.11434452922128821	1.1316237050104847	0.4883425657169732	
143	3.042553191489361	0.29407048051237905	0.8862537365287335	0.6792862707059183	0.2657627991598319	0.45077236252200503	0.7621744026570029	0.2296574874391307	0.029254996172926692	0.8613472950732068	0.21081942828275219	0.026041319715168043	0.6531636799574719	0.2764786800965207	0.008283980407330603	0.687320378270016	0.2035243131186189	-0.03364586877878248	0.953169764377525	0.08897166317497125	0.906845192070479	0.7024894763653821	0.04849016579331713	0.46917737258112086	0.7810215077621662	0.02877715067944236	0.06484557063175544	0.8374378018038756	0.0592049684463237	0.048752325819252464	0.6520702221765194	0.0003285508451211878	0.03301086637245177	0.6980358532301444	0.041803075287958506	0.01004423760125582	0.872436022876792	0.24560645858930608	1.4373627506812752	0.6569375694843044	0.2586096071896101	1.6671918617032309	0.6059335360242565	0.24482464369641566	1.549658799754723	0.5114171486321608	0.40279493149691925	1.336649130475818	0.6878536186262716	0.4398616966881719	1.0969667002077734	0.7214723921580444	0.45999118111201964	1.051137497667854	0.5112125852700138	0.4356301057728398	1.0503429111949067	0.39418147017897165	0.4360409767637422	1.045533305054778	0.39645363954714624	0.4515826047257655	0.9976185817218959	0.4480000557465361	0.07826764509949274	1.3660552152991556	0.7186375675372013	0.05511742149509466	1.1465279904812233	0.7014771472390801	-0.06974023362505768	1.1543936815199853	0.5865995611267254	-0.10253241487019801	1.1923669381616406	0.49917162140550264	-0.12898784978817274	1.1924887040572094	0.4970666958213582	-0.11419447381490094	1.138742366865404	0.49014587580842317	
144	3.0638297872340425	0.2941427730199353	0.8861972976096754	0.6793836696258914	0.26532127358323854	0.45103724315512206	0.7623416070250143	0.23001048370926278	0.02951178581710242	0.860849756544523	0.21080785844078548	0.026110112187089668	0.6531476884149173	0.2772938937734005	0.009671911031724358	0.6847704073976622	0.203714846225892	-0.033919296511005496	0.9531407304712904	0.088733760828225	0.9066874869200553	0.7033675495660208	0.04824881960087378	0.4687501061697959	0.7814799315025118	0.028819965162474086	0.06455663658847927	0.8374524807247543	0.05873906115838817	0.05033925079339711	0.64858437026488	0.000298798927753453	0.03301221119192304	0.6979722017035329	0.04170428936602415	0.010720677837481131	0.8721559779595941	0.24584216272855203	1.4381830369643471	0.6564867661455887	0.25858420220164435	1.6664064173311128	0.6059594432991773	0.24389413138915894	1.5497220491416286	0.5133740059464876	0.40290335623384244	1.337285908779589	0.6876988503258602	0.4391615758665322	1.096833573430623	0.7235948297503786	0.45993285788763805	1.0555802261450498	0.5129266095303503	0.4358921659294517	1.05272240876554	0.39696674886658967	0.43547471222690437	1.049768148212179	0.3960181390550556	0.4512682041480809	1.0060744575176932	0.44581484237193114	0.07847010054667138	1.3660954521210709	0.7186180954851357	0.056654736565480326	1.1410550381529767	0.7083484183078157	-0.06998805958778842	1.1582808483586793	0.5871502041333885	-0.10169517781895991	1.198879971571544	0.5019461254959081	-0.13184615997563248	1.1982036530427884	0.5030492201351124	-0.11388998705561695	1.1469976802839625	0.4923994299499779	
145	3.0851063829787235	0.2943409494255	0.8860080981505432	0.6800013462065461	0.2650796333690273	0.45098750494974893	0.7626862043946028	0.23065762133726847	0.029971319652352793	0.8599507358666106	0.2107940348649039	0.02618342921340252	0.6531419895184617	0.2783031320909845	0.011371827717105473	0.6816493308531574	0.20384889800639716	-0.03419467191663077	0.9531184966548736	0.08833444280060376	0.9066013240978024	0.7041143552967807	0.048017959496857845	0.4683950914399052	0.7819106895004823	0.02883837717537051	0.06426196712024976	0.8374793374365147	0.05833767976437262	0.051318216221128046	0.6457775030334367	0.00026715189479633005	0.03299769652153311	0.6979122761161155	0.04161271349661965	0.011351110719890027	0.8718702738483025	0.24604657275472908	1.4388971833264872	0.6560929861391082	0.2585416578636502	1.6654028500805542	0.6059563409941771	0.24248439964532448	1.5497497744820312	0.5157029839266807	0.40298386183136226	1.337938899267283	0.6877171213481232	0.4384147411591035	1.0964759183319301	0.7265962658459031	0.4600852799684121	1.060622311445573	0.5120214702778985	0.437721739051936	1.0562782608577554	0.40094128322112965	0.4366973445813822	1.053516490681884	0.3960739483107325	0.45074522120636806	1.0141108176508231	0.44359637189569256	0.07857781987453177	1.3661327572516546	0.718599893179777	0.057994157019117504	1.135618341425936	0.7147484266526938	-0.07003096265744557	1.162688957073688	0.5877186631219261	-0.10133373260896064	1.2059791763969916	0.5042527565662829	-0.13486512676389661	1.2039453752571172	0.5087392360458016	-0.11302546165580263	1.156237143914785	0.4947454068242918	
146	3.106382978723404	0.2947338797503989	0.8857576763371959	0.6808255030555388	0.2649469927008984	0.4506641949447285	0.7631405139558032	0.23133027795698796	0.03044339110396442	0.8590211596541627	0.2107787738489249	0.02621695122033723	0.6531322943371766	0.27937415844998625	0.013153342113659053	0.6783719279256626	0.2038776768633421	-0.03450264230351068	0.9530843808945224	0.08812005059945856	0.9065155545118702	0.7047711003504853	0.047914738144883715	0.46820312542895	0.782074547943961	0.028825853695078046	0.06406286725365959	0.8375239127955574	0.058173084163766924	0.05146776467830633	0.6445503910925249	0.0002533637493246902	0.03300941516861808	0.6978662737036793	0.04154801679987484	0.011837503922715084	0.8716614270176297	0.24613187575048723	1.4394405141896336	0.6559900419949751	0.25848346915526443	1.6642592494495616	0.6059457914349333	0.24077462736997707	1.549760364837989	0.5180917986786304	0.4030678962023513	1.3384870678458987	0.6877238735229362	0.43757368003815783	1.0954756267409806	0.7302988033716437	0.4606411157914675	1.0655346818474414	0.5096267673713493	0.4397515386032267	1.0617313331275322	0.40595875547074134	0.4387747655995072	1.0572457094114525	0.39638871329387965	0.45002841023995166	1.0213739859845727	0.44171757029737	0.07861698530741447	1.3661625479021295	0.7185932654455586	0.058476993306381495	1.1308163957661712	0.7199232203783846	-0.06997326802778212	1.1669268778908974	0.5882599931937496	-0.10139868726068273	1.2129766243344504	0.5075283335256134	-0.13748030647593187	1.210417800351367	0.5137909279130032	-0.1115583554011962	1.1656293460939644	0.49676004916520144	
